<svg xmlns="http://www.w3.org/2000/svg" width="37.803" height="43.986" viewBox="0 0 37.803 43.986">
  <path id="Trazado_4298" data-name="Trazado 4298" d="M37.917,9.2,28.931.369a1.289,1.289,0,0,0-.9-.369H5.308A4.814,4.814,0,0,0,.5,4.808v34.37a4.814,4.814,0,0,0,4.808,4.808H33.494A4.814,4.814,0,0,0,38.3,39.178V10.115A1.289,1.289,0,0,0,37.917,9.2Zm-8.6-4.835,4.547,4.465H29.726a.41.41,0,0,1-.41-.41Zm4.178,37.048H5.308a2.234,2.234,0,0,1-2.231-2.231V4.808A2.233,2.233,0,0,1,5.308,2.577H26.739V8.416A2.99,2.99,0,0,0,29.726,11.4h6V39.178A2.233,2.233,0,0,1,33.494,41.409Zm0,0" transform="translate(-0.5)" fill="#9b9b9b"/>
</svg>
