<svg id="advertencia" xmlns="http://www.w3.org/2000/svg" width="55.181" height="46.545" viewBox="0 0 55.181 46.545">
  <path id="Trazado_4289" data-name="Trazado 4289" d="M241.759,191.521a1.724,1.724,0,0,1-1.724-1.724V177.728a1.724,1.724,0,0,1,3.448,0V189.8A1.724,1.724,0,0,1,241.759,191.521Z" transform="translate(-214.169 -161.355)" fill="#9b9b9b"/>
  <path id="Trazado_4290" data-name="Trazado 4290" d="M54.449,78.888,32.985,43.114a6.3,6.3,0,0,0-10.791,0L.729,78.888A5.106,5.106,0,0,0,5.1,86.611H50.077a5.106,5.106,0,0,0,4.373-7.723Zm-4.373,4.275H5.1a1.654,1.654,0,0,1-1.416-2.5L25.151,44.888a2.847,2.847,0,0,1,4.877,0L51.493,80.662A1.654,1.654,0,0,1,50.077,83.163Z" transform="translate(0.001 -40.066)" fill="#9b9b9b"/>
  <ellipse id="Elipse_75" data-name="Elipse 75" cx="2.586" cy="2.586" rx="2.586" ry="2.586" transform="translate(25.004 31.89)" fill="#9b9b9b"/>
</svg>
