<svg id="rotacion-en-el-sentido-de-las-agujas-del-reloj" xmlns="http://www.w3.org/2000/svg" width="46.773" height="47.544" viewBox="0 0 46.773 47.544">
  <g id="Layer_2_19_" transform="translate(0 0)">
    <g id="Grupo_4245" data-name="Grupo 4245">
      <path id="Trazado_4291" data-name="Trazado 4291" d="M49.083,15.882a1.88,1.88,0,0,0-3.516,1.331A19.616,19.616,0,0,1,19.489,42.185a19.784,19.784,0,0,1-3.9-2.22A19.617,19.617,0,0,1,34.326,5.877l-1.332,2.25c-.366.618-.085,1.031.624.916l6.329-1.022A1.052,1.052,0,0,0,40.8,6.582L38.652.541c-.24-.677-.737-.725-1.1-.107L36.265,2.6A23.374,23.374,0,0,0,5.515,32.833a23.221,23.221,0,0,0,7.851,10.162,23.546,23.546,0,0,0,4.641,2.645A23.376,23.376,0,0,0,49.083,15.882Z" transform="translate(-3.832 0)" fill="#9b9b9b"/>
      <path id="Trazado_4292" data-name="Trazado 4292" d="M214.506,90.917a1.522,1.522,0,0,0-1.522,1.522V107.6l13.87,7.17a1.522,1.522,0,0,0,2.051-.653,1.522,1.522,0,0,0-.654-2.051l-12.222-6.319V92.439A1.522,1.522,0,0,0,214.506,90.917Z" transform="translate(-191.944 -81.771)" fill="#9b9b9b"/>
    </g>
  </g>
</svg>
