<?xml version="1.0" encoding="UTF-8"?>
<svg id="Capa_2" data-name="Capa 2" xmlns="http://www.w3.org/2000/svg" viewBox="0 0 719.19 210.11">
  <defs>
    <style>
      .cls-1 {
        fill: #1d2b4e;
      }

      .cls-2 {
        fill: #ec2944;
        fill-rule: evenodd;
      }
    </style>
  </defs>
  <g id="Capa_1-2" data-name="Capa 1">
    <g>
      <path class="cls-2" d="m633.29,123.41c19.17-29.64-.38,0,19.13-29.4,2.97-4.49,4.32-7.56,4.31-10.37,0-2.66-1.22-5.09-3.41-8.3-1.99-2.93-3.56-6.24-5.09-9.56-.71-.04-1.13.27-1.31.54-30.13,49.89-41.5,66.88-43.32,69.63-.09.14.03.32.19.27,3.6-1.11,28.49-11.23,29.51-12.8Z"/>
      <path class="cls-2" d="m717.08,135.06c-14.56-32.64-31.43-69.2-47.07-103.6-.24-.53-.96-.59-1.29-.11-4.88,7.21-11,17.54-14.19,22.72-1.2,1.96,2.14,8.98,3.44,11.54,5.85,11.5,11.31,21.97,17.52,33.27,1.12,2.04,3.36,5.17,4.82,6.95,12.67,15.35,13.45,17.74,24.46,29.96.14.16.55.44.76.43,1.75-.01,8.23.12,10.91,0,.52-.02.86-.67.65-1.15Z"/>
      <path class="cls-2" d="m658.1,1.96c-2.01,1.05-3.79,1.77-5.65,1.94-1.24.1-2.51-.03-3.91-.5-2.91-.95-5.78-.48-8.51.9-2.77,1.41-5.41,3.76-7.8,6.52-6.82,7.86-50.52,112.83-56.46,125.06-.08.16.03.35.22.34,2.22-.02,13.04.12,13.16-.04,19.19-26.74,64-104.18,74.59-118.78,4.59-6.33,6.46-6.81,11.26-3.7.15.1.37,0,.39-.17,1.15-9.98-8.21-16.27-17.29-11.56Z"/>
      <path class="cls-1" d="m161.28,131.43c4.95-6.23,9.98-12.4,15.08-18.5-18.73-6.45-26.24-24.46-26.69-41.54-.55-21.83,12.03-46.44,42.56-46.44,22.67,0,35.22,13.47,40.05,29.35,6.24-5.53,12.67-10.85,19.28-15.89-9.71-20.31-29.47-35.67-59.33-35.67-44.77,0-66.61,34.23-66.61,68.27,0,25.05,11.49,49.31,35.66,60.41Z"/>
      <path class="cls-1" d="m289.16,7.12c-4.95,6.23-9.96,12.41-15.05,18.52,18.74,6.42,26.27,24.43,26.73,41.51.58,21.83-11.97,46.45-42.5,46.49-22.67.03-35.24-13.43-40.07-29.3-6.24,5.54-12.66,10.87-19.26,15.92,9.73,20.3,29.5,35.63,59.37,35.6,44.77-.06,66.56-34.31,66.52-68.35-.03-25.05-11.54-49.3-35.73-60.37Z"/>
      <path class="cls-1" d="m118.15,116.7c-13.33,13.14-30.53,19.24-49.22,19.24C20.82,135.94.47,102.82.28,69.15.1,35.29,22.12.87,68.93.87c17.58,0,34.23,6.66,47.55,19.8l-16.28,15.73c-8.51-8.33-19.98-12.21-31.27-12.21-31.27,0-44.78,23.31-44.59,44.96.19,21.46,12.58,43.85,44.59,43.85,11.29,0,24.05-4.62,32.56-13.13l16.65,16.83Z"/>
      <path class="cls-1" d="m456.84,136.85h-29.05l-37.74-43.29h-23.5v43.29h-24.42V7.15c20.54,0,41.07.19,61.61.19,30.53.18,46.63,20.54,46.63,42.92,0,17.76-8.14,35.71-32.75,40.71l39.23,44.22v1.67Zm-90.29-106.76v41.44h37.19c15.54,0,22.2-10.36,22.2-20.72s-6.84-20.73-22.2-20.73h-37.19Z"/>
      <path class="cls-1" d="m545.61,35.71c-4.44-7.4-16.65-14.43-30.71-14.43-18.13,0-26.83,7.59-26.83,17.21,0,11.28,13.32,14.43,28.86,16.28,27.02,3.33,52.18,10.36,52.18,41.26,0,28.86-25.54,41.26-54.4,41.26-26.46,0-46.81-8.14-56.43-31.83l20.36-10.54c5.73,14.24,20.72,20.54,36.45,20.54s29.79-5.36,29.79-19.43c0-12.21-12.77-17.2-29.97-19.06-26.46-3.14-50.88-10.18-50.88-39.23,0-26.64,26.28-37.56,50.14-37.74,20.17,0,41.08,5.74,50.88,25.71l-19.43,9.99Z"/>
      <g>
        <path class="cls-1" d="m0,207.69l1.64-3.63c1.76,1.28,4.38,2.17,6.88,2.17,2.86,0,4.02-.95,4.02-2.23,0-3.9-12.12-1.22-12.12-8.96,0-3.54,2.86-6.49,8.78-6.49,2.62,0,5.3.62,7.24,1.85l-1.49,3.66c-1.94-1.1-3.93-1.64-5.78-1.64-2.86,0-3.96,1.07-3.96,2.38,0,3.84,12.12,1.19,12.12,8.85,0,3.48-2.89,6.46-8.85,6.46-3.3,0-6.64-.98-8.49-2.41Z"/>
        <path class="cls-1" d="m34.89,199.33c0-6.19,4.82-10.78,11.4-10.78s11.41,4.55,11.41,10.78-4.85,10.78-11.41,10.78-11.4-4.59-11.4-10.78Zm17.93,0c0-3.96-2.8-6.67-6.52-6.67s-6.52,2.71-6.52,6.67,2.8,6.67,6.52,6.67,6.52-2.71,6.52-6.67Z"/>
        <path class="cls-1" d="m76.9,188.9h4.82v16.91h10.45v3.93h-15.28v-20.84Z"/>
        <path class="cls-1" d="m110.01,200.58v-11.67h4.82v11.5c0,3.96,1.73,5.6,4.65,5.6s4.65-1.64,4.65-5.6v-11.5h4.76v11.67c0,6.13-3.51,9.53-9.44,9.53s-9.44-3.39-9.44-9.53Z"/>
        <path class="cls-1" d="m147.91,199.33c0-6.28,4.82-10.78,11.31-10.78,3.61,0,6.61,1.31,8.58,3.69l-3.1,2.86c-1.4-1.61-3.16-2.44-5.24-2.44-3.9,0-6.67,2.74-6.67,6.67s2.77,6.67,6.67,6.67c2.09,0,3.84-.83,5.24-2.47l3.1,2.86c-1.96,2.41-4.97,3.72-8.61,3.72-6.46,0-11.28-4.5-11.28-10.78Z"/>
        <path class="cls-1" d="m186.61,188.9h4.82v20.84h-4.82v-20.84Z"/>
        <path class="cls-1" d="m210.64,199.33c0-6.19,4.82-10.78,11.4-10.78s11.41,4.55,11.41,10.78-4.86,10.78-11.41,10.78-11.4-4.59-11.4-10.78Zm17.93,0c0-3.96-2.8-6.67-6.52-6.67s-6.52,2.71-6.52,6.67,2.8,6.67,6.52,6.67,6.52-2.71,6.52-6.67Z"/>
        <path class="cls-1" d="m271.76,188.9v20.84h-3.96l-10.39-12.65v12.65h-4.76v-20.84h3.99l10.36,12.65v-12.65h4.76Z"/>
        <path class="cls-1" d="m308.41,205.88v3.87h-16.14v-20.84h15.75v3.87h-10.96v4.53h9.68v3.75h-9.68v4.82h11.35Z"/>
        <path class="cls-1" d="m326.18,207.69l1.64-3.63c1.76,1.28,4.38,2.17,6.88,2.17,2.86,0,4.02-.95,4.02-2.23,0-3.9-12.12-1.22-12.12-8.96,0-3.54,2.86-6.49,8.78-6.49,2.62,0,5.3.62,7.24,1.85l-1.49,3.66c-1.93-1.1-3.93-1.64-5.77-1.64-2.86,0-3.96,1.07-3.96,2.38,0,3.84,12.12,1.19,12.12,8.85,0,3.48-2.89,6.46-8.84,6.46-3.31,0-6.64-.98-8.49-2.41Z"/>
        <path class="cls-1" d="m396.81,188.9h4.82v16.91h10.45v3.93h-15.28v-20.84Z"/>
        <path class="cls-1" d="m428.7,199.33c0-6.19,4.83-10.78,11.41-10.78s11.41,4.55,11.41,10.78-4.85,10.78-11.41,10.78-11.41-4.59-11.41-10.78Zm17.93,0c0-3.96-2.8-6.67-6.52-6.67s-6.52,2.71-6.52,6.67,2.8,6.67,6.52,6.67,6.52-2.71,6.52-6.67Z"/>
        <path class="cls-1" d="m484.79,199h4.41v8.46c-2.3,1.73-5.45,2.65-8.43,2.65-6.55,0-11.38-4.5-11.38-10.78s4.83-10.78,11.47-10.78c3.66,0,6.7,1.25,8.72,3.6l-3.1,2.86c-1.52-1.61-3.28-2.35-5.39-2.35-4.05,0-6.82,2.71-6.82,6.67s2.77,6.67,6.76,6.67c1.31,0,2.53-.24,3.75-.89v-6.1Z"/>
        <path class="cls-1" d="m509.23,188.9h4.83v20.84h-4.83v-20.84Z"/>
        <path class="cls-1" d="m532.93,207.69l1.64-3.63c1.76,1.28,4.38,2.17,6.88,2.17,2.86,0,4.02-.95,4.02-2.23,0-3.9-12.12-1.22-12.12-8.96,0-3.54,2.86-6.49,8.78-6.49,2.62,0,5.3.62,7.24,1.85l-1.49,3.66c-1.94-1.1-3.93-1.64-5.78-1.64-2.86,0-3.96,1.07-3.96,2.38,0,3.84,12.12,1.19,12.12,8.85,0,3.48-2.89,6.46-8.85,6.46-3.3,0-6.64-.98-8.49-2.41Z"/>
        <path class="cls-1" d="m573.15,192.84h-6.67v-3.93h18.17v3.93h-6.67v16.91h-4.83v-16.91Z"/>
        <path class="cls-1" d="m602.81,188.9h4.82v20.84h-4.82v-20.84Z"/>
        <path class="cls-1" d="m626.83,199.33c0-6.28,4.82-10.78,11.31-10.78,3.61,0,6.61,1.31,8.58,3.69l-3.1,2.86c-1.4-1.61-3.15-2.44-5.24-2.44-3.9,0-6.67,2.74-6.67,6.67s2.77,6.67,6.67,6.67c2.09,0,3.84-.83,5.24-2.47l3.1,2.86c-1.96,2.41-4.97,3.72-8.61,3.72-6.46,0-11.29-4.5-11.29-10.78Z"/>
        <path class="cls-1" d="m678.85,205.28h-9.68l-1.84,4.47h-4.94l9.29-20.84h4.76l9.32,20.84h-5.06l-1.85-4.47Zm-1.52-3.66l-3.31-7.98-3.31,7.98h6.61Z"/>
        <path class="cls-1" d="m701.86,207.69l1.64-3.63c1.76,1.28,4.38,2.17,6.88,2.17,2.86,0,4.02-.95,4.02-2.23,0-3.9-12.12-1.22-12.12-8.96,0-3.54,2.86-6.49,8.78-6.49,2.62,0,5.3.62,7.24,1.85l-1.49,3.66c-1.94-1.1-3.93-1.64-5.78-1.64-2.86,0-3.96,1.07-3.96,2.38,0,3.84,12.12,1.19,12.12,8.85,0,3.48-2.89,6.46-8.85,6.46-3.3,0-6.64-.98-8.48-2.41Z"/>
        <polygon class="cls-1" points="513.01 182.28 517.47 182.28 512.67 186.1 509.43 186.1 513.01 182.28"/>
      </g>
    </g>
  </g>
</svg>