<svg xmlns="http://www.w3.org/2000/svg" width="55.683" height="53.284" viewBox="0 0 55.683 53.284">
  <g id="Grupo_4290" data-name="Grupo 4290" transform="translate(0.25 0.25)">
    <g id="Grupo_4046" data-name="Grupo 4046" transform="translate(0 0)">
      <g id="Grupo_4043" data-name="Grupo 4043" transform="translate(0 25.193)">
        <path id="Trazado_4184" data-name="Trazado 4184" d="M37.189,247.732H1.2a1.2,1.2,0,1,1,0-2.4H37.189a1.2,1.2,0,0,1,0,2.4Z" transform="translate(0 -245.333)" fill="#9b9b9b" stroke="#9b9b9b" stroke-width="0.5"/>
      </g>
      <g id="Grupo_4044" data-name="Grupo 4044" transform="translate(26.392 15.597)">
        <path id="Trazado_4185" data-name="Trazado 4185" d="M235.861,181.608a1.2,1.2,0,0,1-.849-2.047l8.75-8.75-8.748-8.748a1.2,1.2,0,0,1,1.7-1.7l9.6,9.6a1.2,1.2,0,0,1,0,1.7l-9.6,9.6A1.2,1.2,0,0,1,235.861,181.608Z" transform="translate(-234.661 -160.016)" fill="#9b9b9b" stroke="#9b9b9b" stroke-width="0.5"/>
      </g>
      <g id="Grupo_4045" data-name="Grupo 4045" transform="translate(3.837)">
        <path id="Trazado_4186" data-name="Trazado 4186" d="M59.074,74.117A26.428,26.428,0,0,1,34.188,56.523a1.2,1.2,0,0,1,2.262-.8,24,24,0,1,0,0-16,1.2,1.2,0,1,1-2.262-.8A26.392,26.392,0,1,1,59.074,74.117Z" transform="translate(-34.12 -21.333)" fill="#9b9b9b" stroke="#9b9b9b" stroke-width="0.5"/>
      </g>
    </g>
  </g>
</svg>
